<?xml version="1.0" encoding="utf-8"?>
<!-- Generator: Adobe Illustrator 23.1.0, SVG Export Plug-In . SVG Version: 6.00 Build 0)  -->
<svg version="1.1" id="Layer_2" xmlns="http://www.w3.org/2000/svg" xmlns:xlink="http://www.w3.org/1999/xlink" x="0px" y="0px"
	 viewBox="0 0 251 253" style="enable-background:new 0 0 251 253;" xml:space="preserve">
<style type="text/css">
	.st0{fill:#00629B;}
	.st1{fill:none;stroke:#000000;stroke-width:8;stroke-miterlimit:10;}
	.st2{display:none;fill:#00629B;}
	.st3{stroke:#000000;stroke-width:5;stroke-miterlimit:10;}
	.st4{fill:none;stroke:#000000;stroke-width:5;stroke-miterlimit:10;}
	.st5{display:none;}
	.st6{display:inline;fill:#00629B;}
	.st7{display:inline;}
	.st8{fill:none;stroke:#00629B;stroke-width:2;stroke-miterlimit:10;}
</style>
<g>
	<g id="buildings">
		<rect x="96.28" y="163.27" width="20.54" height="19.44"/>
		<rect x="22.33" y="144.53" width="15.06" height="25.56"/>
		<rect x="30.55" y="159.46" width="25.56" height="21.17"/>
		<rect x="48.81" y="155.29" width="20.09" height="31.24"/>
		<rect x="76.65" y="173.32" class="st0" width="19.63" height="13.21"/>
		<rect x="68.89" y="168.13" width="15.98" height="18.4"/>
		<rect x="141.02" y="169.64" width="21.46" height="16.67"/>
		<rect x="154.72" y="165.07" width="20.09" height="21.46"/>
		<rect x="172.06" y="169.6" width="17.8" height="17.84"/>
		<rect x="186.21" y="147.27" width="15.52" height="39.04"/>
		<rect x="220.45" y="144.53" width="10.5" height="15.98"/>
		<rect x="199.91" y="157.66" width="23.28" height="19.35"/>
	</g>
	<circle id="circle" class="st1" cx="125.5" cy="126.27" r="107.51"/>
	<path id="pureobelisk" class="st2" d="M125.62,53.23c2.46,4.1,5,8.15,7.32,12.33c0.82,1.47,1.41,3.23,1.53,4.89
		c1.2,16.57,2.29,33.14,3.38,49.72c1.07,16.28,2.11,32.56,3.17,48.84c0.37,5.69,0.76,11.38,1.14,17.06c-11.22,0-22.44,0-33.66,0
		c1.1-16.47,2.23-32.95,3.3-49.42c1.08-16.58,2.12-33.15,3.19-49.73c0.38-5.98,0.72-11.97,1.24-17.94c0.1-1.18,0.83-2.36,1.45-3.44
		c2.41-4.13,4.89-8.21,7.35-12.31C125.23,53.23,125.43,53.23,125.62,53.23z"/>
	<g id="halfobelisk">
		<path id="darkside" class="st3" d="M125.5,53.46V186.3h-17.12c0.38-5.69,0.77-11.38,1.14-17.06c1.06-16.28,2.1-32.56,3.17-48.84
			c1.09-16.58,2.18-33.15,3.38-49.72c0.12-1.67,0.71-3.42,1.52-4.89c2.32-4.18,4.87-8.23,7.32-12.33
			C125.11,53.46,125.5,53.46,125.5,53.46z"/>
		<path id="brightside" class="st4" d="M142.62,186.3H125.5V53.46c0,0,0.39,0,0.59,0c2.46,4.1,5,8.15,7.32,12.33
			c0.81,1.47,1.41,3.23,1.52,4.89c1.2,16.57,2.29,33.14,3.38,49.72c1.07,16.28,2.11,32.56,3.17,48.84
			C141.85,174.93,142.24,180.61,142.62,186.3z"/>
	</g>
	<path id="birditba" d="M79.41,63.04c-0.31,0.81-0.47,2.29-1.37,3.65c-0.78,1.19-2,1.98-2.28,2.74c-0.6,1.63-0.46,4.33-0.46,5.02
		c0,3.5,1.37,4.56,1.37,4.56s0.22-1.78,1.83-4.11c0.97-1.41,3.16-2.98,4.11-4.56c1.8-3.01,2.88-6.16,2.97-6.16
		c1.2,0.02,5.25-0.23,5.25-0.23l1.83,1.37c0-1.83,0.68-3.88,0.68-3.88l-2.05,0.68l-3.2-1.83c0,0,0.86-0.53,1.37-1.37
		c0.72-1.19,1.18-2.86,1.37-3.2c0.9-1.63,0.49-3.7,1.37-5.02c1.25-1.88,4.11-3.65,4.11-3.65c-0.98-0.11-3.04-0.44-5.02,0
		c-2.17,0.48-4.28,1.78-5.48,2.74c-0.9,0.72,0,3.2-0.46,4.56c-0.44,1.32-1.42,2.87-2.74,4.11c-1.83-0.06-5.02,0.46-6.85,1.37
		c0,0,0.38,0.95,1.37,1.83C77.87,62.34,79.26,62.99,79.41,63.04z"/>
	<g id="other_birds" class="st5">
		<path id="pigeon" class="st6" d="M74.22,78.44c-4.38-2.22-6.47-6.55-5.85-11.4c0.14-1.12,0.04-2.34-0.25-3.44
			c-0.55-2.11-1.88-3.6-4.08-4.16c-0.39-0.1-0.76-0.23-1.14-0.35c2.44-0.93,4.72-2.23,7.37-1.39c2.91,0.92,4.39,3.24,5.62,5.82
			c1.56-2.23,2.82-3.12,5.41-3.48c1.62-0.22,3.27-0.24,4.91-0.21c1.25,0.02,2.5,0.24,3.97,0.4c-1.02,0.74-1.87,1.26-2.61,1.91
			c-0.76,0.67-1.4,1.46-2.16,2.26c-3.2-0.39-6.16,1.22-6.54,3.8c0.24-0.08,0.48-0.19,0.58-0.38c1.55-2.78,4.31-3.64,7.07-2.18
			c2.56,1.35,5.28,2.26,8.15,2.62c1.5,0.19,3.02,0.25,4.66,0.37c-4.1,5.36-9.63,6.9-16.21,6.37c2.24,3.77,4.38,7.37,6.57,11.06
			c-3.46-0.06-6.82-0.11-10.22-0.16c0.28-1.77,0.56-3.47,0.8-5.01C78.15,80.03,76.1,79.4,74.22,78.44z M70.06,59.57
			c0.06-0.21-0.21-0.68-0.42-0.74c-0.23-0.06-0.72,0.16-0.79,0.36c-0.09,0.26,0.14,0.62,0.3,1.2C69.61,60,69.99,59.83,70.06,59.57z"
			/>
		<g id="pigeon_1_" class="st7">
			<path class="st0" d="M90.81,91.39c-0.17-0.72-0.31-1.38-0.48-2.02c-0.46-1.8-1.3-3.4-2.46-4.84c-1.37-1.71-3.11-3.02-4.81-4.37
				c-1.39-1.11-2.62-2.36-3.44-3.96c-0.37-0.72-0.69-1.47-0.75-2.29c-0.06-0.8-0.19-1.61-0.1-2.4c0.14-1.3,0.63-2.51,1.35-3.61
				c0.85-1.3,1.93-2.42,2.99-3.54c1.2-1.27,2.41-2.53,3.25-4.09c0.92-1.72,1.25-3.53,0.91-5.46c-0.06-0.34-0.1-0.69-0.16-1.11
				c1.61,0.9,2.93,2.04,4.01,3.43c1.59,2.04,2.57,4.36,2.82,6.94c0.64,6.68-3.19,11.98-8.55,14.17c0.45,0.1,0.88,0.19,1.31,0.28
				c1.74,0.4,3.03,1.41,3.94,2.93c0.48,0.8,0.77,1.68,0.98,2.59c0.35,1.54,0.33,3.08,0.1,4.61C91.57,89.59,91.31,90.5,90.81,91.39z"
				/>
			<path class="st0" d="M79.43,79.06c-2.1-0.09-4.06-0.67-5.87-1.73c-2.63-1.54-4.57-3.71-5.73-6.53
				c-2.74-6.72,0.07-14.05,6.26-17.33c0.05,0.36,0.11,0.71,0.15,1.07c0.18,1.57,0.95,2.83,2.13,3.82c0.96,0.81,2.01,1.52,3,2.3
				c0.7,0.55,1.31,1.2,1.61,2.06c0.4,1.15,0.15,2.19-0.56,3.21c-0.19-1.4-0.58-2.65-2.04-3.17c-0.97-0.35-2.48-0.12-3.08,0.24
				c0.17,0.22,0.36,0.42,0.49,0.66c0.44,0.76,0.24,1.54-0.05,2.29c-0.39,1.03-0.87,2.02-1.22,3.06c-0.31,0.92-0.41,1.88-0.31,2.88
				c0.3,2.92,2.02,4.89,4.24,6.54C78.78,78.64,79.11,78.84,79.43,79.06z"/>
			<path class="st0" d="M78.04,63.73c0.02,0.32-0.17,0.46-0.46,0.48c-0.25,0.02-0.47-0.21-0.47-0.48c0.01-0.28,0.14-0.45,0.45-0.44
				C77.85,63.29,78.06,63.38,78.04,63.73z"/>
		</g>
		<path id="pigeon_2_" class="st6" d="M82.36,82.71c-0.84,0.94-0.84,0.94-2.86-1.72c-1.11,0.64-1.55,0.57-2.14-0.67
			c-0.61-1.29-1.03-2.66-1.53-4c-0.14-0.38-0.24-0.77-0.56-1.13c-0.06,0.33-0.12,0.65-0.2,1.05c-2.22-0.54-3.83-1.78-4.5-3.9
			c-0.52-1.63-0.72-3.36-1.03-5.06c-0.09-0.48-0.03-0.98-0.08-1.46c-0.14-1.58-0.68-1.95-2.23-1.54c-0.21,0.06-0.42,0.09-0.65,0.13
			c0.17-0.67,0.27-1.28,0.49-1.85c0.37-0.97,1.09-1.51,2.17-1.48c1.44,0.04,2.48,0.79,3.31,1.9c0.42,0.56,0.81,1.15,1.26,1.8
			c1.1-1.27,2.22-2.41,3.16-3.69c1.71-2.32,3.4-4.68,4.93-7.12c0.58-0.92,0.71-2.12,1.04-3.2c0.1-0.33,0.19-0.66,0.29-1
			c0.12,0.02,0.25,0.04,0.37,0.05c-0.08,1.08-0.17,2.17-0.25,3.27c0.66-0.19,1.11-0.32,1.57-0.45c0.03,0.55,0.13,1.1,0.08,1.64
			c-0.06,0.59-0.26,1.17-0.4,1.74c1.2,0.54,1.3,1.9,0.09,2.69c-2.02,1.31-4.12,2.48-6.2,3.7c-1.1,0.65-2.3,1.16-3.31,1.92
			c-1.22,0.93-1.24,2.04-0.21,2.93c0.09-0.1,0.23-0.19,0.26-0.31c0.39-1.65,1.56-2.59,2.96-3.36c2.18-1.19,4.41-2.3,6.49-3.65
			c2.75-1.78,4.77-4.23,5.83-7.4c0.23-0.68,0.64-1.3,1.16-1.87c0.35,1.54-0.52,2.84-0.78,4.11c0.81,0.06,1.5,0.12,2.2,0.17
			c-0.19,0.66-0.32,1.35-0.6,1.98c-0.34,0.75-0.81,1.43-1.22,2.13c0.93,1.05,0.97,1.5,0.12,2.64c-0.53,0.72-1.13,1.38-1.7,2.06
			c1.18,1.12,1.18,1.52,0.05,2.71c-0.36,0.38-0.83,0.67-1.14,1.09c-0.25,0.32-0.31,0.78-0.5,1.16c-0.17,0.34-0.33,0.76-0.63,0.93
			c-0.51,0.3-1.11,0.44-1.77,0.68c0.36,1.06-0.41,1.37-1.23,1.63c-1.95,0.6-3.8,0.13-5.61-0.57c-0.34-0.13-0.68-0.29-1.14-0.31
			c1.49,5.06,4.1,9.21,9.39,11.22c-0.06,0.11-0.12,0.22-0.17,0.33c-0.37,0.01-0.75,0.05-1.12,0.04c-0.59-0.02-1.2-0.34-1.69,0.42
			C84.02,83.24,83.1,82.87,82.36,82.71z"/>
		<g id="pigeonwon" class="st7">
			<path class="st0" d="M83.41,60.2c0,0-3.19-5.22-8.25-4.67c0,0-2.96,0.16-4.36,2.34c0,0,3.11-0.78,4.98,5.92
				c0,0,2.96,9.19,10.28,7.94c11.59-1.97,7.79-16.66,7.79-16.66S91.82,57.71,83.41,60.2z"/>
			<path class="st8" d="M75.08,59.19c0,0-0.78,5.76,1.87,9.5c1.1,1.55,5.14,5.3,10.12,5.3c4.11,0,7.32,0.93,7.32,0.93
				s-0.16-3.43-4.05-6.54C86.45,65.26,75.08,59.19,75.08,59.19z"/>
		</g>
		<path id="birdviejo" class="st6" d="M83.58,70.09c2.75-1.02,4.06-4.87,5.36-6.78c2.53-4.13,6.12-5.11,6.12-5.11
			c-2.11-1.44-4.73-2.19-6.79-2.09l0,0c-1.24,0.06-2.28,0.43-2.9,1.14c-2.18,2.58-2.19,7.91-6,10.58c-0.99-0.31-1.96-0.66-2.72-1.38
			c-1.05-0.84-2.38-1.01-3.37-0.55c-0.75-0.42-2.34-0.91-2.51-0.69c-0.17,0.21,0.66,1.65,1.24,2.29c-0.23,1.06,0.24,2.32,1.29,3.16
			c0.88,0.59,1.36,1.51,1.87,2.48c-1.81,4.2-6.91,5.4-8.92,8.08c-1.48,2.02,0.07,6.46,3.07,9.24c0,0,0.16-3.71,3.63-7.1
			c1.57-1.7,5.05-3.84,5.42-6.75c1.91,1.3,4.78,2.82,7.26,3.57c0.3,0.53,3.02,5.28,3.14,7.09c0,0,1.37-0.83,2.91-3.35
			c0,0,0.8-0.79-0.03-2.05c1.41,0.53,2-0.43,2-0.43c2.11-2.06,2.62-3.58,2.62-3.58c-1.79,0.29-7.02-1.31-7.61-1.49"/>
	</g>
	<g id="text_1_">
		<g>
			<path d="M28.46,173.06c17.31,36.18,54.25,61.17,97.04,61.17c42.15,0,78.63-24.26,96.25-59.57L28.46,173.06z"/>
		</g>
	</g>
</g>
</svg>
