<?xml version="1.0" encoding="utf-8"?>
<!-- Generator: Adobe Illustrator 23.1.0, SVG Export Plug-In . SVG Version: 6.00 Build 0)  -->
<svg version="1.1" id="Layer_1" xmlns="http://www.w3.org/2000/svg" xmlns:xlink="http://www.w3.org/1999/xlink" x="0px" y="0px"
	 viewBox="0 0 482 253" style="enable-background:new 0 0 482 253;" xml:space="preserve">
<style type="text/css">
	.st0{stroke:#000000;stroke-miterlimit:10;}
	.st1{fill:none;stroke:#000000;stroke-miterlimit:10;}
</style>
<g>
	<path class="st0" d="M171.94,154.3c5.63-7.41,12.6-11.63,21.93-10.47c9.33,1.16,15.08,6.86,18.17,16.11
		c1.25-4.9,3.68-8.47,7.16-11.32c12.86-10.52,31.48-3.78,34.62,12.53c1.07,5.56,1.54,11.19,1.59,16.84
		c0.1,12.27,0.01,24.54,0.06,36.81c0.01,1.41-0.15,2.03-1.83,2.04c-1.7,0-1.83-0.64-1.83-2.04c0-13.65,0.01-27.29-0.15-40.94
		c-0.05-4.33-0.52-8.65-1.53-12.89c-2.17-9.1-8.39-13.85-17.96-13.71c-8.42,0.12-15.01,5.73-16.8,14.3
		c-1.07,5.14-1.54,10.35-1.58,15.59c-0.08,12.48-0.03,24.95-0.02,37.43c0,1.22,0.33,2.33-1.76,2.28c-1.88-0.04-1.88-0.84-1.88-2.21
		c0.03-11.58,0.07-23.16,0-34.74c-0.04-6.53-0.14-13.1-1.87-19.46c-3.19-11.72-15.16-16.87-25.87-11.11
		c-5.84,3.14-8.3,8.55-9.27,14.81c-0.86,5.59-1.15,11.22-1.17,16.87c-0.04,11.24-0.07,22.47-0.05,33.71c0,1.5-0.27,2.22-2.02,2.1
		c-1.22-0.08-1.42-0.46-1.42-1.56c0.03-23.37,0.04-46.74-0.02-70.1c0-1.51,0.63-1.57,1.81-1.62c1.32-0.05,1.78,0.3,1.73,1.69
		C171.86,148.25,171.94,151.27,171.94,154.3z"/>
	<path class="st0" d="M146.38,206.39c-2,2.28-3.8,4.46-6.14,6.18c-7.03,5.19-16.56,5.61-23.66,0.97
		c-7.84-5.12-11.32-13.68-9.25-22.75c1.82-7.98,9.17-14.92,17.53-15.66c6.3-0.56,12.68-0.32,19.03-0.18
		c2.15,0.05,2.51-0.65,2.31-2.51c-0.43-4.04-0.73-8.09-1.71-12.04c-3.17-12.8-17.82-17.56-27.86-8.96c-1.82,1.56-2.15-0.15-2.99-0.8
		c-1.31-1-0.03-1.5,0.54-2c11.76-10.23,29.75-4.31,34.08,11.19c1.71,6.12,1.67,12.4,1.72,18.66c0.09,12.13,0.01,24.26,0.05,36.4
		c0,1.26-0.02,2.02-1.67,1.93c-1.39-0.07-2.11-0.17-2.01-1.87C146.5,212.1,146.38,209.25,146.38,206.39z M135.94,178.5
		c-2.76,0-5.52-0.04-8.28,0.01c-11.13,0.18-19.37,10.51-16.85,21.11c1.84,7.73,8.56,13.31,16.24,13.47
		c8.93,0.19,15.13-4.36,17.45-13.04c1.77-6.64,1.79-13.48,1.9-20.3c0.02-1.03-0.41-1.27-1.34-1.26
		C142.01,178.52,138.98,178.5,135.94,178.5z"/>
	<path class="st0" d="M313.46,205.43c-3.41,5.64-7.73,9.21-13.53,10.63c-8.32,2.03-15.49-0.24-21.08-6.65
		c-5.64-6.47-6.7-14.06-3.34-21.8c3.34-7.69,9.46-12.26,18.09-12.61c5.92-0.24,11.86-0.15,17.79-0.07c1.63,0.02,1.91-0.48,1.79-2
		c-0.32-4.33-0.67-8.65-1.8-12.86c-3.92-14.61-19.82-15.66-27.6-8.88c-1.2,1.05-3.14,0.45-3.64-1.1c-0.22-0.69,0.44-0.89,0.8-1.22
		c6.53-5.96,16.33-6.96,23.99-2.54c7.44,4.29,10.55,11.13,11.42,19.25c0.94,8.65,0.61,17.34,0.64,26.01
		c0.03,7.79-0.03,15.57,0.04,23.36c0.01,1.4-0.3,1.88-1.79,1.87c-1.41-0.01-1.89-0.3-1.82-1.79
		C313.55,212.04,313.46,209.05,313.46,205.43z M303.07,178.5c-2.83,0-5.66-0.05-8.48,0.01c-11.57,0.26-19.71,11.21-16.51,22.16
		c2.24,7.64,9.2,12.59,17.47,12.42c8.1-0.16,14.2-5.32,16.18-13.88c1.48-6.4,1.55-12.96,1.75-19.49c0.03-1.06-0.36-1.26-1.31-1.24
		C309.14,178.53,306.11,178.5,303.07,178.5z"/>
	<path class="st0" d="M24.81,171.35c0.25,6.5-0.45,14.43,0.44,22.34c0.36,3.15,1.1,6.21,1.99,9.26c1.51,5.17,4.99,8.04,10.06,9.28
		c2.35,0.58,4.74,0.91,7.16,0.85c1.79-0.04,1.01,1.27,1.08,2.04c0.07,0.69,0.47,1.73-1.01,1.66c-4.15-0.2-8.23-0.63-12.07-2.38
		c-3.62-1.65-6.11-4.31-7.64-7.99c-2.79-6.73-3.66-13.79-3.68-20.99c-0.04-12.13-0.04-24.26,0.03-36.38c0.01-1.43-0.3-1.98-1.79-1.8
		c-1.09,0.13-2.21-0.07-3.3,0.05c-1.49,0.16-1.99-0.25-1.99-1.87c-0.01-1.68,0.62-1.9,2.05-1.87c1.62,0.03,3.78,0.76,4.72-0.32
		c0.8-0.92,0.27-3.01,0.27-4.58c0.01-8.2,0.05-16.4-0.03-24.6c-0.01-1.44,0.47-1.73,1.74-1.65c1.11,0.07,2.04-0.2,2.02,1.6
		c-0.11,9.23-0.01,18.47-0.09,27.7c-0.01,1.51,0.31,1.96,1.9,1.93c5.72-0.11,11.45,0.01,17.17-0.08c1.51-0.03,1.81,0.47,1.79,1.86
		c-0.03,1.29-0.1,1.93-1.71,1.9c-5.72-0.12-11.45,0.03-17.17-0.09c-1.71-0.04-1.98,0.54-1.96,2.06
		C24.85,156.16,24.81,163.05,24.81,171.35z"/>
	<path class="st1" d="M409.2,77.99c-3.83,0.29-7.66,0.6-11.5,0.84c-0.93,0.06-1.47,0.35-1.86,1.25c-4.1,9.51-8.25,19.01-12.37,28.51
		c-0.13,0.3-0.14,0.66-0.2,0.99c-0.39-0.13-0.62-0.41-0.7-0.81c-0.08-0.74,0.36-1.31,0.63-1.93c3.27-7.56,6.58-15.11,9.84-22.68
		c0.71-1.65,1.68-3.22,2.01-5.18c-6.89,0.41-13.61,0.83-20.33,1.21c-1.31,0.07-0.73,0.88-0.59,1.44c2.3,8.97,4.61,17.94,6.93,26.9
		c-0.38,0.09-0.76,0.17-1.13,0.26c-0.21-1.07-0.51-2.13-0.61-3.21c-0.18-1.91-1.09-2.41-2.98-2.21c-6.22,0.67-12.46,1.19-18.71,1.69
		c-1.65,0.13-1.72,0.72-1.18,2.08c1.55,3.89,3.03,7.81,4.4,11.77c0.5,1.44,1.04,1.57,2.33,0.9c5.13-2.64,10.31-5.18,15.47-7.76
		c0.1,0.24,0.21,0.47,0.31,0.71c-5.2,2.66-10.39,5.35-15.61,7.97c-1,0.5-1.5,0.91-1.01,2.15c1.87,4.72,3.63,9.49,5.43,14.24
		c-0.4,0.18-0.8,0.37-1.2,0.55c-0.02-0.34,0.04-0.71-0.07-1.01c-1.69-4.58-3.43-9.14-5.08-13.73c-0.44-1.22-1.05-0.7-1.7-0.37
		c-3.5,1.77-6.98,3.58-10.5,5.31c-6.35,3.12-12.54,6.59-19.01,9.46c-0.47-0.37-0.95-0.73-1.42-1.1c1.49-9.33,2.99-18.67,4.48-28
		c0.31,0.05,0.62,0.11,0.93,0.16c-1.48,9.28-2.96,18.56-4.42,27.69c0.5,0.36,0.74,0.18,0.97,0.06c9.64-4.86,19.26-9.74,28.92-14.56
		c0.97-0.49,0.85-0.97,0.55-1.76c-1.4-3.65-2.73-7.34-4.15-10.98c-1.79-4.61-0.7-3.88-5.62-3.55c-0.96,0.07-1.93,0.06-2.89,0.13
		c-3.63,0.26-7.28,0.21-10.89,0.78c0-0.39,0.01-0.78,0.01-1.17c5.43-0.28,10.85-0.57,16.28-0.84c0.69-0.03,1.21-0.05,1.03-1
		c-0.52-2.87-0.97-5.76-4.64-6.29c-0.13-0.02-0.26-0.08-0.39-0.13c-6.17-2.66-12.51-4.9-18.57-7.83c0.18-0.33,0.49-0.44,0.83-0.48
		c6.87,2.83,13.76,5.62,20.6,8.52c1.28,0.54,1.84,0.35,2.51-0.86c3.98-7.24,8.06-14.42,12.09-21.63c0.31-0.55,0.78-1.08,0.74-2.01
		c-1.45,0.6-2.72,1.11-3.97,1.65c-10.5,4.5-20.99,9.01-31.49,13.51c-0.02-0.44-0.02-0.87,0.36-1.19c8.88-3.8,17.78-7.56,26.64-11.42
		c3.18-1.39,6.52-2.46,9.48-4.33c0.39,0.34,0.77,0.68,1.16,1.02c-0.68,0.34-0.86,1.04-1.19,1.63c-4.12,7.31-8.1,14.7-12.39,21.91
		c-1.51,2.53-1.91,4.8-0.97,7.55c0.39,1.14,0.8,1.56,1.98,1.45c6.72-0.62,13.44-1.19,20.17-1.75c1.09-0.09,1.41-0.47,1.12-1.57
		c-2.52-9.64-4.99-19.3-7.48-28.95c0.3-0.05,0.61-0.1,0.91-0.15c0.71,2.58,1.41,5.16,2.12,7.73c3.43-0.76,6.94-0.54,10.41-0.85
		c3.36-0.3,6.73-0.45,10.11-0.57c1.11-0.04,1.73-0.4,2.17-1.46c1.51-3.62,3.07-7.21,4.7-10.77c0.47-1.02,0.3-1.77-0.22-2.67
		c-1.97-3.39-3.9-6.81-5.81-10.23c-0.31-0.56-0.93-1.05-0.64-1.94c0.9-0.03,1.03,0.76,1.33,1.28c1.91,3.34,3.84,6.68,5.67,10.07
		c0.63,1.17,1.1,1.42,2.27,0.53c2.68-2.05,5.47-3.95,8.24-5.88c0.52-0.36,0.99-0.97,1.74-0.78c0.21,0.63-0.22,0.84-0.52,1.07
		c-0.77,0.58-1.57,1.12-2.35,1.68c-9.34,6.68-9.32,6.68-13.31,17.42c-0.45,1.2-0.19,1.43,0.99,1.36c3.44-0.21,6.88-0.35,10.31-0.52
		C409.09,77.4,409.17,77.67,409.2,77.99z"/>
	<path class="st0" d="M68.16,152.86c4.33-7.05,11.23-8.81,18.79-9.3c1.45-0.09,1.59,0.61,1.5,1.72c-0.08,0.94,0.41,2.04-1.39,2.02
		c-3.68-0.05-7.27,0.55-10.61,2.22c-2.64,1.32-4.51,3.31-5.61,6.05c-2.27,5.63-3.18,11.53-3.21,17.55
		c-0.09,13.92-0.04,27.85-0.01,41.77c0,1.26-0.02,2.01-1.68,1.93c-1.4-0.07-2.01-0.18-2-1.87c0.07-23.16,0.06-46.32,0.01-69.48
		c0-1.56,0.42-1.93,1.96-1.95c1.6-0.02,1.77,0.62,1.72,1.93c-0.09,2.43-0.03,4.87-0.03,7.3C67.78,152.78,67.97,152.82,68.16,152.86z
		"/>
	<path class="st1" d="M383.86,110.89c6.44-1.14,12.73-2.95,19.1-4.43c7.98-1.86,15.94-3.81,23.91-5.73c0.6-0.14,1.17-0.43,1.94,0.45
		c-14.52,3.52-29.05,7.03-43.57,10.55c-0.01,0.13-0.01,0.26-0.02,0.39c8.86,1.66,17.71,3.32,26.8,5.02
		c-1.51-3.59-2.9-6.89-4.38-10.42c1.34,0.19,1.36,1,1.62,1.59c1,2.26,2.1,4.5,2.91,6.83c0.6,1.72,1.62,2.41,3.37,2.72
		c7.19,1.26,14.37,2.61,21.53,4.02c1.41,0.28,2.09-0.07,2.67-1.38c2.15-4.84,4.4-9.64,6.67-14.43c0.54-1.13,0.63-2.05,0.06-3.26
		c-3.42-7.29-6.74-14.62-10.07-21.95c-0.25-0.56-0.81-1.11-0.17-2.51c3.92,8.51,7.63,16.53,11.46,24.86
		c2.72-5.81,5.28-11.27,8-17.09c0.73,1.27,0.11,1.87-0.16,2.47c-2.09,4.57-4.23,9.11-6.32,13.68c-2.8,6.13-5.72,12.21-8.58,18.31
		c-0.61,1.31-0.69,2,0.97,2.47c2.85,0.8,5.64,1.8,8.41,2.84c1.19,0.45,2.06,0.27,3.03-0.48c2.52-1.93,5.09-3.79,7.65-5.65
		c0.54-0.39,0.99-0.99,1.97-0.71c-2.96,2.79-6.41,4.99-9.83,7.73c5.09,1.75,9.94,3.43,15.07,5.19c-0.97,0.92-1.61,0.4-2.16,0.22
		c-4.18-1.39-8.35-2.81-12.51-4.28c-1.02-0.36-1.79-0.24-2.65,0.41c-3.02,2.29-6.07,4.54-9.16,6.75c-0.93,0.66-1.43,1.35-1.32,2.54
		c0.13,1.51,0.29,3.05,0.12,4.54c-0.24,2.16,0.73,3.39,2.41,4.55c3.75,2.58,7.38,5.32,11.04,8.02c0.52,0.38,1.29,0.58,1.47,2.17
		c-5.05-3.65-9.69-7-14.56-10.53c0,4.54,0,8.81,0,13.54c-1.02-1.41-0.77-2.55-0.8-3.61c-0.19-5.71-0.32-11.43-0.5-17.14
		c-0.02-0.6-0.01-1.49-0.36-1.73c-0.69-0.46-1.19,0.41-1.7,0.78c-3.59,2.57-7.14,5.18-10.7,7.78c0.01-0.41,0.03-0.83,0.04-1.24
		c3.84-2.79,7.67-5.61,11.54-8.36c0.79-0.56,0.98-1.22,0.95-2.1c-0.11-3.17-0.24-6.33-0.24-9.5c0-1.27-0.37-1.78-1.69-2.01
		c-5.9-1.02-11.78-2.18-17.67-3.26c-1.79-0.33-3.55-0.95-5.68-0.77c3.48,8.07,6.88,15.95,10.28,23.83
		c-0.38,0.04-0.77,0.09-1.15,0.13c-3.07-8.03-6.74-15.8-10.05-23.73c-0.32-0.76-0.92-0.94-1.63-1.07
		c-9.28-1.71-18.55-3.43-27.83-5.15C383.56,112.14,383.71,111.52,383.86,110.89z M440.22,134.78c3.53-2.58,6.88-5.03,10.47-7.65
		c-3.45-1.19-6.61-2.28-9.77-3.37c-0.91-0.32-1.24-0.01-1.2,0.94C439.85,127.92,439.72,131.16,440.22,134.78z"/>
	<path class="st1" d="M288.21,75.26c0.97-0.79,1.55-1.7,1.74-3.05c0.56-3.95,1.34-7.87,2.05-11.8c0.1-0.53,0.1-1.11,1.09-2.02
		c-0.4,5.15-1.68,9.62-2.21,14.18c-0.12,0.4-0.32,0.87,0.44,0.5c5.56-3.31,11.12-6.63,16.7-9.91c0.81-0.48,1.15-1.09,1.19-2
		c0.15-3.78,0.3-7.57,0.54-11.35c0.08-1.3-0.32-1.64-1.63-1.53c-1.84,0.16-3.69,0.04-5.75,0.04c0.82-1.37,1.97-0.74,2.85-0.8
		c4.6-0.3,4.6-0.26,4.81-4.89c0.31-6.74,0.62-13.48,0.94-20.22c0.02-0.45-0.18-0.98,0.51-1.36c0.66,0.65,0.36,1.5,0.33,2.23
		c-0.3,7.43-0.59,14.86-1,22.29c-0.08,1.37,0.32,1.74,1.54,1.58c0.07-0.01,0.14,0.01,0.21,0c5.6-0.98,10.5,0.92,15.34,3.47
		c4.38,2.31,8.95,4.26,13.43,6.39c0.67,0.32,1.3,0.7,1.98,1.06c0.6-0.65,0.03-1.3-0.13-1.88c-2.42-8.32-4.92-16.62-7.29-24.96
		c-0.42-1.49-1.12-1.89-2.58-1.93c-3.17-0.1-6.32-0.42-9.49-0.66c-0.51-0.04-1.09,0.07-1.7-0.99c4.46,0.29,8.57,0.56,12.89,0.84
		c-1.39-4.84-2.73-9.51-4.17-14.53c1.17,0.39,1.19,0.95,1.34,1.45c3.98,13.53,8.03,27.04,11.86,40.61c0.57,2,1.45,3,3.25,3.81
		c6.15,2.77,12.22,5.72,18.33,8.58c0.72,0.34,1.39,0.97,2.31,0.62c0.26,0.43,0.17,0.89,0.09,1.35c-0.58-0.2-1.18-0.36-1.73-0.62
		c-14.07-6.61-28.18-13.14-42.18-19.9c-3.1-1.5-6.13-2.16-9.51-1.92c-3.91,0.28-3.92,0.2-4.06,4.2c-0.01,0.34-0.07,0.69-0.08,1.03
		c-0.03,2.77-0.51,5.54-0.2,8.57c3.37-2,6.5-3.85,9.83-5.82c0.06,1.36-0.77,1.48-1.29,1.81c-2.28,1.42-4.53,2.9-6.91,4.13
		c-1.5,0.78-1.98,1.81-2.04,3.41c-0.31,8.39-0.71,16.77-1.05,25.16c-0.03,0.8-0.41,1.68,0.23,2.82c4.93-9.48,9.71-18.65,14.62-28.09
		c0.75,1.16,0.17,1.64-0.08,2.13c-2.54,4.96-5.05,9.93-7.68,14.84c-2.11,3.93-3.88,8.04-6.33,11.78c-0.64-0.08-1.29-0.15-1.93-0.23
		c0.47-9.85,0.94-19.71,1.41-29.58c-1.12-0.09-1.67,0.52-2.29,0.89c-4.84,2.88-9.68,5.78-14.49,8.71c-0.69,0.42-1.54,0.65-1.93,1.47
		C289.62,75.22,288.91,75.24,288.21,75.26z"/>
	<path class="st1" d="M367.81,161.4c-0.87,3.89-1.64,7.81-2.66,11.67c-0.4,1.51-0.02,2.39,1.04,3.4c2.85,2.71,5.59,5.53,8.36,8.32
		c0.46,0.47,1.14,0.8,1.24,2.28c-3.53-2.89-6.12-6.09-9.53-8.55c2.47,5.75,4.94,11.5,7.44,17.3c-1.12,0.33-1.17-0.41-1.36-0.82
		c-0.83-1.81-1.63-3.64-2.38-5.49c-0.4-0.99-0.88-1.11-1.64-0.36c-3.21,3.22-6.43,6.45-9.66,9.65c-0.45,0.44-0.5,0.95-0.47,1.51
		c0.11,2.2,0.27,4.4,0.31,6.6c0.02,1.19,0.62,1.48,1.67,1.53c2.13,0.11,4.27,0.28,6.39,0.49c0.77,0.08,1.67-0.12,2.29,0.64
		c-0.5,0.84-1.25,0.4-1.87,0.36c-2.2-0.16-4.4-0.33-6.59-0.63c-1.53-0.21-1.88,0.37-1.77,1.79c0.24,3.23,0.35,6.46,0.5,9.69
		c0.03,0.72,0.18,1.47-0.18,2.13c-0.19,0-0.38,0.01-0.57,0.01c-0.23-4.23-0.46-8.46-0.72-13.17c-4.94,4.33-9.63,8.45-14.55,12.76
		c-0.34-1.38,0.52-1.68,1-2.11c4.02-3.57,8.02-7.16,12.12-10.64c1.08-0.92,1.03-1.41,0.06-2.32c-1.23-1.15-2.58-2.23-3.33-3.88
		c1.76,0.58,2.62,2.34,4.36,3.44c0-2.25,0.1-4.33-0.04-6.39c-0.08-1.22,0.23-2.06,1.1-2.91c3.22-3.12,6.33-6.35,9.56-9.46
		c0.84-0.81,0.94-1.43,0.45-2.46c-1.28-2.74-2.45-5.53-3.62-8.33c-0.44-1.05-0.82-1.46-1.84-0.49c-4.91,4.64-9.85,9.25-14.8,13.84
		c-0.79,0.74-0.86,1.69-1.04,2.62c-0.83,4.47-1.63,8.94-2.45,13.4c-0.08,0.43,0.09,1.01-0.74,1.24c-0.43-0.75-0.12-1.53,0.01-2.27
		c0.73-4.06,1.47-8.13,2.24-12.19c0.25-1.32,0.13-1.87-1.51-1.48c-3.49,0.81-7.03,1.39-10.55,2.05c-0.5,0.09-1.03,0.43-1.59-0.22
		c0.41-0.67,1.13-0.65,1.75-0.77c3.51-0.69,7.02-1.45,10.55-2.01c1.47-0.23,2.54-0.89,3.57-1.86c4.72-4.44,9.44-8.88,14.19-13.28
		c0.84-0.78,1.38-1.63,1.63-2.77c0.9-4.03,1.89-8.04,2.84-12.05C367.28,161.29,367.54,161.35,367.81,161.4z"/>
	<path class="st1" d="M425.6,147.27c-0.79,6.22-1.58,12.43-2.4,18.65c-0.14,1.09,0.05,1.95,0.81,2.82c2.59,2.95,5.15,5.94,7.61,9
		c0.91,1.13,2.06,1.22,3.3,1.34c5.9,0.55,11.81,1.1,17.71,1.65c0.5,0.05,1.14-0.17,1.48,1c-6.8-0.61-13.42-1.2-20.57-1.84
		c4.83,5.73,9.34,11.07,14.15,16.78c-1.66-0.06-1.98-0.94-2.47-1.52c-4.04-4.71-8.08-9.42-12.04-14.2
		c-0.95-1.15-1.43-1.09-2.23,0.09c-1.16,1.71-3.29,3.22-3.48,4.99c-0.17,1.55,1.78,3.31,2.74,5.01c1.75,3.12,3.46,6.27,5.17,9.41
		c0.28,0.52,0.72,1,0.64,1.65c-0.19,0.11-0.39,0.22-0.58,0.33c-2.87-5.17-5.73-10.35-8.71-15.72c-1.78,2.29-3.46,4.47-5.24,6.76
		c-0.72-1.17,0.08-1.57,0.44-2.05c2.81-3.75,5.63-7.5,8.52-11.19c0.73-0.94,0.9-1.54-0.01-2.53c-2.28-2.49-4.45-5.09-6.57-7.72
		c-1.03-1.28-1.41-0.98-1.95,0.36c-1.72,4.28-3.53,8.52-5.32,12.76c-0.26,0.62-0.38,1.32-1.03,1.84c-0.84-0.77-0.12-1.43,0.12-2.02
		c1.88-4.58,3.81-9.15,5.72-13.72c0.31-0.75,0.67-1.37-0.07-2.22c-4.86-5.64-9.66-11.33-14.47-17.02c-0.29-0.34-0.6-0.54-1.04-0.55
		c0.38-0.18,0.77-0.36,1.16-0.54c5.01,5.77,10.01,11.55,15.21,17.54c0.16-1.22,0.29-2.03,0.38-2.84c0.56-5.27,1.53-10.49,1.82-15.79
		C424.79,147.61,425.19,147.44,425.6,147.27z"/>
	<path class="st1" d="M305.54,97.18c-6.13,0.92-12.26,1.86-18.4,2.75c-0.8,0.12-1.29,0.41-1.77,1.09c-1.23,1.75-2.53,3.45-3.94,5.05
		c-0.86,0.98-0.85,1.57,0.11,2.49c2.84,2.71,5.59,5.53,8.36,8.32c0.47,0.47,1.1,0.84,1.24,1.62c-1.05,0.48-1.37-0.46-1.84-0.92
		c-2.81-2.75-5.62-5.5-8.34-8.34c-0.93-0.97-1.39-0.9-2.17,0.14c-2.33,3.08-4.69,6.13-7.17,9.09c-1.13,1.35-0.56,1.59,0.74,1.84
		c2.7,0.52,5.39,1.12,8.09,1.68c0.53,0.11,1.1,0.12,1.44,0.65c-0.25,0.67-0.73,0.45-1.2,0.35c-3.03-0.64-6.1-1.16-9.09-1.95
		c-1.56-0.41-1.7,0.16-1.74,1.43c-0.17,4.75-0.42,9.49-0.68,14.23c-0.03,0.57,0.22,1.27-0.77,1.86c-0.36-5.43,0.58-10.68,0.34-16.39
		c-3.46,4.37-6.66,8.4-9.86,12.43c-0.24-0.19-0.48-0.38-0.72-0.58c8.76-11.1,17.52-22.21,26.62-33.75
		c-6.34,0.96-12.16,1.84-17.98,2.72c-0.04-0.38-0.08-0.75-0.13-1.13c3.03-0.04,5.98-0.74,8.96-1.18c9.93-1.44,19.85-2.94,29.78-4.42
		C305.45,96.58,305.5,96.88,305.54,97.18z"/>
	<path class="st1" d="M384.61,178.74c-0.66,7.82-1.32,15.64-1.97,23.46c-0.4,4.87-0.74,9.75-1.22,14.61c-0.14,1.48,0.14,2.3,1.63,3
		c6.66,3.13,13.25,6.43,19.85,9.69c0.61,0.3,1.49,0.36,1.77,1.87c-7.96-3.87-15.56-7.56-23.41-11.39c-0.55,6.5-1.08,12.77-1.6,19.05
		c-0.21-0.01-0.42-0.02-0.63-0.02c-0.35-0.87-0.13-1.81-0.07-2.7c0.39-5.69,0.74-11.4,1.28-17.07c0.99-10.48,1.65-20.98,2.63-31.46
		c0.31-3.29,0.44-6.59,0.66-9.89C383.89,178.17,384.25,178.46,384.61,178.74z"/>
	<path class="st1" d="M264.58,100.31c1.68-4.36,3.32-8.74,5.09-13.06c0.43-1.06-0.14-1.53-0.66-2.13
		c-3.59-4.19-7.18-8.36-10.76-12.55c-0.43-0.5-1.07-0.89-1.07-1.79c0.99-0.27,1.27,0.61,1.69,1.1c3.57,4.11,7.13,8.22,10.63,12.39
		c0.78,0.94,1.34,1.26,2.51,0.53c4.62-2.87,9.3-5.63,14.23-8.59c-4.02-2.67-7.92-5.25-11.81-7.84c0.15-0.24,0.31-0.47,0.46-0.71
		c4.19,2.7,8.38,5.39,12.58,8.09c-0.2,0.52-0.4,1.04-0.59,1.56c-0.39,0.11-0.82,0.14-1.15,0.34c-4.65,2.77-9.3,5.56-13.93,8.36
		c-0.34,0.21-0.79,0.45-0.91,0.78c-1.71,4.68-3.89,9.19-5.1,14.06C265.38,100.67,264.98,100.49,264.58,100.31z"/>
	<path class="st1" d="M371.83,66.97c3.52-5,7.03-10.01,10.58-15c4.23-5.95,8.48-11.87,12.76-17.79c0.45-0.63,0.71-1.52,1.76-1.7
		c0.36,0.93-0.41,1.41-0.79,1.95c-7.49,10.47-15,20.92-22.49,31.39c-0.43,0.6-1.03,1.13-1.08,1.96
		C372.16,67.65,371.98,67.33,371.83,66.97z"/>
	<path class="st1" d="M326.05,136.89c0.22-0.9-0.35-1.58-0.68-2.3c-5.31-11.38-10.63-22.76-15.94-34.14
		c-0.23-0.49-0.37-1.02-0.55-1.53c0.14-0.36,0.4-0.51,0.78-0.49c0.26,0.63,0.49,1.28,0.78,1.9c5.56,11.95,11.13,23.9,16.69,35.85
		C326.77,136.41,326.41,136.65,326.05,136.89z"/>
	<path class="st1" d="M365.52,157.7c-5.24-2.42-10.17-5.41-15.25-8.1c-6.61-3.5-13.18-7.07-19.76-10.6c0-0.32,0-0.64,0-0.97
		c0.74-0.01,1.28,0.46,1.87,0.79c5.31,2.88,10.6,5.79,15.91,8.65c5.91,3.18,11.85,6.32,17.78,9.48
		C366.08,157.33,365.79,157.51,365.52,157.7z"/>
	<path class="st1" d="M387.13,178.34c4.28,6.98,8.55,13.97,12.84,20.95c2.09,3.4,4.2,6.8,6.3,10.2c0.35,0.56,0.85,1.07,0.81,1.77
		c-0.49,0.3-0.73,0.07-0.92-0.23c-6.61-10.72-13.22-21.44-19.83-32.17C386.6,178.68,386.86,178.51,387.13,178.34z"/>
	<path class="st1" d="M370.69,41.35c-5.73-4.95-11.47-9.9-17.19-14.87c-0.18-0.15-0.24-0.44-0.35-0.67c0.13-0.15,0.27-0.31,0.4-0.46
		c2.83,2.43,5.65,4.86,8.8,7.56c0.15-3.36-1.11-6.06-1.04-8.89c0.88-0.15,0.83,0.48,0.92,0.88c0.19,0.8,0.45,1.63,0.42,2.44
		c-0.18,6.51,4.04,10.1,8.79,13.35C371.2,40.91,370.95,41.13,370.69,41.35z"/>
	<path class="st1" d="M262.51,104.91c-2.3,0.83-4.13,2.46-6.13,3.76c-7.1,4.62-14.15,9.33-21.23,14c-0.55,0.36-1.04,0.85-1.76,0.9
		c-0.38-0.89,0.31-1.05,0.71-1.31c9.02-5.98,18.04-11.94,27.07-17.9c0.16-0.11,0.39-0.11,0.58-0.17
		C262.01,104.43,262.26,104.67,262.51,104.91z"/>
	<path class="st1" d="M402.82,148.44c-3.49,0.46-6.7,1.9-10.02,2.94c-7.39,2.3-14.74,4.7-22.11,7.07c-0.16-0.39-0.32-0.78-0.48-1.17
		c0.4-0.04,0.83-0.02,1.21-0.14c10.33-3.29,20.65-6.6,30.97-9.91C402.53,147.63,402.68,148.04,402.82,148.44z"/>
	<path class="st1" d="M368.62,67.41c-6.16-8.44-12.32-16.89-18.47-25.34c-0.1-0.14-0.09-0.36-0.13-0.54
		c0.67-0.45,0.91,0.1,1.17,0.45c5.91,8.12,11.8,16.26,17.69,24.39c0.11,0.15,0.1,0.39,0.14,0.58
		C369.08,67.27,368.87,67.36,368.62,67.41z"/>
	<path class="st1" d="M308.07,98.91c-1.64,7.22-3.29,14.44-4.92,21.67c-0.47,2.07-0.85,4.17-1.38,6.23
		c-0.17,0.67-0.02,1.54-1.44,2.31c2.28-10.42,4.47-20.38,6.65-30.33C307.34,98.83,307.71,98.87,308.07,98.91z"/>
	<path class="st1" d="M261.69,103.77c-7.68,0.77-15.36,1.55-23.04,2.32c-2.14,0.21-4.27,0.41-6.44,0.38
		c0.87-1.01,2.05-0.87,3.13-0.98c8.29-0.88,16.59-1.74,24.89-2.62c0.48-0.05,0.94-0.2,1.41-0.3
		C261.65,102.97,261.67,103.37,261.69,103.77z"/>
	<path class="st1" d="M261.85,101.7c0.23-0.93-0.54-1.34-1.01-1.88c-4.76-5.44-9.55-10.85-14.3-16.3c-0.32-0.37-1.33-0.8-0.58-1.43
		c0.54-0.45,0.89,0.42,1.21,0.79c5.12,5.93,10.56,11.57,15.41,17.74C262.56,101.13,262.28,101.47,261.85,101.7z"/>
	<path class="st1" d="M370.17,66.8c0.69-7.1,1.38-14.2,2.07-21.29c0.3,0.01,0.6,0.02,0.89,0.03c-0.59,6.65-1.17,13.31-1.75,19.96
		c-0.04,0.48,0,0.96,0.01,1.44C370.98,66.89,370.58,66.84,370.17,66.8z"/>
	<path class="st1" d="M330.5,138.03c0,0.32,0,0.65,0,0.97c-0.21,1.38-1,2.21-2.38,2.38c-1.03,0.13-1.94-0.24-2.45-1.13
		c-0.66-1.15-0.66-2.34,0.38-3.35c0.36-0.24,0.72-0.48,1.08-0.72c0.55,0.03,1.11,0.05,1.66,0.08c0.47,0.37,0.95,0.73,1.42,1.1
		C330.3,137.57,330.4,137.8,330.5,138.03z"/>
	<path class="st1" d="M409.2,77.99c-0.03-0.32-0.11-0.6-0.48-0.68c-0.06-3.1,1.03-4.1,3.71-3.39c0.37,0.3,0.75,0.61,1.12,0.92
		c0.5,0.96,0.34,1.93,0.02,2.9c-0.3,0.09-0.46,0.27-0.41,0.6C411.77,79.03,410.43,79.09,409.2,77.99z"/>
	<path class="st1" d="M365.65,159.97c-5.95,1.45-11.9,2.89-17.85,4.34c-0.65,0.16-1.27,0.49-2.07-0.33
		c6.57-1.73,13.13-3.45,19.7-5.18C365.51,159.19,365.58,159.58,365.65,159.97z"/>
	<path class="st1" d="M405.23,149.66c-0.58,6.67-1.16,13.34-1.73,20.01c-0.28-0.02-0.57-0.05-0.85-0.07
		c0.54-6.67,0.89-13.36,1.8-20.01C404.7,149.62,404.97,149.64,405.23,149.66z"/>
	<path class="st1" d="M425.6,147.27c-0.4,0.17-0.8,0.34-1.21,0.52c-0.91,0.08-1.74-0.1-2.37-0.83c-0.2-0.31-0.41-0.61-0.61-0.92
		c-0.24-1.44,0.2-2.57,1.5-3.32c0.38-0.04,0.77-0.09,1.15-0.13c1.36,0.12,2.2,0.83,2.51,2.16c-0.01,0.41-0.03,0.83-0.04,1.24
		C426.22,146.41,425.91,146.84,425.6,147.27z"/>
	<path class="st1" d="M387.13,178.34c-0.27,0.17-0.53,0.34-0.8,0.51c-0.57-0.04-1.15-0.07-1.72-0.11c-0.36-0.29-0.72-0.57-1.08-0.86
		c-0.84-1.08-0.64-2.2-0.1-3.32c0.15-0.16,0.3-0.32,0.46-0.47c1.75-0.73,3.27-0.73,4.18,1.28c0.03,0.42,0.05,0.85,0.08,1.27
		C388.04,177.34,387.8,177.97,387.13,178.34z"/>
	<path class="st1" d="M373.13,45.53c-0.3-0.01-0.6-0.02-0.89-0.03c-1.85-0.89-2.26-2.32-1.55-4.16c0.25-0.22,0.5-0.44,0.76-0.65
		c0.38-0.13,0.77-0.27,1.15-0.4c0.42,0.05,0.85,0.1,1.28,0.15c0.16,0.05,0.32,0.11,0.48,0.16c0.31,0.38,0.63,0.76,0.94,1.13
		C375.84,44.04,375.44,44.75,373.13,45.53z"/>
	<path class="st1" d="M286.88,77.31c0.2-0.52,0.4-1.04,0.59-1.56c0.25-0.16,0.49-0.33,0.73-0.49c0.7-0.02,1.41-0.05,2.11-0.07
		c1.61,0.84,2.1,2.1,1.39,3.79c-0.34,0.34-0.68,0.68-1.02,1.02C288.02,80.65,287.06,79.97,286.88,77.31z"/>
	<path class="st1" d="M405.23,149.66c-0.26-0.02-0.53-0.04-0.79-0.07c-0.61-0.29-1.32-0.43-1.62-1.15c-0.14-0.4-0.29-0.81-0.43-1.21
		c-0.01-0.75,0.07-1.48,0.62-2.06c0.25-0.21,0.49-0.43,0.74-0.64c1.8-0.45,3.17-0.04,3.78,1.88c-0.01,0.39-0.02,0.78-0.03,1.18
		c-0.17,0.43-0.34,0.85-0.51,1.28c-0.39,0.18-0.77,0.36-1.16,0.54C405.63,149.49,405.43,149.58,405.23,149.66z"/>
	<path class="st1" d="M383.86,110.89c-0.15,0.63-0.31,1.25-0.46,1.88c-0.14,0.18-0.27,0.35-0.41,0.53c-0.31,0-0.62,0.03-0.76,0.38
		c-1.27,0.33-2.37,0.07-3.29-0.89c-0.1-0.24-0.21-0.47-0.31-0.71c-0.34-1.39,0.22-2.43,1.28-3.27c0.38-0.09,0.76-0.17,1.13-0.26
		c0.51,0.08,1.02,0.15,1.52,0.23c0.08,0.4,0.3,0.68,0.7,0.81C383.47,110.02,383.67,110.46,383.86,110.89z"/>
	<path class="st1" d="M365.65,159.97c-0.07-0.39-0.15-0.78-0.22-1.17c0.03-0.37,0.06-0.73,0.09-1.1c0.27-0.19,0.56-0.37,0.54-0.76
		c0.42-0.23,0.83-0.45,1.25-0.68c0.42-0.02,0.83-0.04,1.25-0.06c0.7,0.13,1.31,0.41,1.65,1.08c0.16,0.39,0.32,0.78,0.48,1.17
		c-0.16,0.64-0.32,1.29-0.48,1.93c-0.15,0.17-0.3,0.35-0.45,0.52c-0.65,0.17-1.3,0.33-1.96,0.5c-0.26-0.05-0.53-0.11-0.79-0.16
		C366.56,160.82,366.11,160.4,365.65,159.97z"/>
	<path class="st1" d="M308.07,98.91c-0.36-0.04-0.73-0.09-1.09-0.13c-0.61-0.42-1.2-0.85-1.44-1.6c-0.04-0.3-0.09-0.6-0.13-0.9
		c0.13-0.51,0.26-1.01,0.38-1.52c0.23-0.23,0.46-0.46,0.69-0.69c0.38-0.12,0.76-0.23,1.14-0.35c0.64,0.08,1.29,0.15,1.93,0.23
		c0.28,0.35,0.57,0.7,0.85,1.06c0.07,0.19,0.14,0.39,0.22,0.58c0.01,0.38,0.03,0.76,0.04,1.13c-0.05,0.26-0.09,0.52-0.14,0.77
		c-0.29,0.31-0.58,0.62-0.87,0.93c-0.37-0.02-0.64,0.13-0.78,0.49C308.6,98.91,308.34,98.91,308.07,98.91z"/>
	<path class="st1" d="M413.55,74.84c-0.37-0.31-0.75-0.61-1.12-0.92c0.86-0.07,1.26-0.78,1.79-1.3c3.32-3.29,6.61-6.62,9.95-9.9
		c0.49-0.48,0.82-1.33,2.25-1.03C421.99,66.2,417.77,70.52,413.55,74.84z"/>
	<path class="st1" d="M370.17,66.8c0.41,0.05,0.81,0.09,1.22,0.14c0.15,0.01,0.3,0.02,0.44,0.03c0.15,0.36,0.33,0.68,0.73,0.81
		c1.07,1.71,0.62,3.04-1.04,4.06c-0.3,0.05-0.61,0.1-0.91,0.15c-0.41-0.09-0.83-0.17-1.24-0.26c-0.39-0.34-0.77-0.68-1.16-1.02
		c-0.09-0.09-0.16-0.19-0.2-0.32c0.08-0.46,0.17-0.92-0.09-1.35c0.23-0.54,0.47-1.09,0.7-1.64c0.26-0.05,0.46-0.14,0.41-0.46
		C369.41,66.9,369.79,66.85,370.17,66.8z"/>
	<path class="st1" d="M261.85,101.7c0.42-0.24,0.7-0.57,0.73-1.07c0.67-0.11,1.33-0.22,2-0.32c0.4,0.18,0.8,0.36,1.2,0.55
		c0.3,0.34,0.59,0.68,0.88,1.02c0.04,0.38,0.08,0.75,0.13,1.13c-0.13,1.65-1.05,2.45-2.67,2.5c-0.48-0.16-0.95-0.31-1.43-0.47
		c-0.07-0.02-0.13-0.07-0.18-0.12c-0.25-0.24-0.5-0.48-0.75-0.72c-0.02-0.14-0.05-0.28-0.07-0.42c-0.02-0.4-0.04-0.8-0.06-1.2
		C261.71,102.28,261.78,101.99,261.85,101.7z"/>
	<path class="st1" d="M262.69,105.03c0.48,0.16,0.95,0.31,1.43,0.47c-2.02,4.89-3.22,10.04-4.92,15.03
		c-0.29,0.84-0.23,1.9-1.19,2.58c-0.72-0.83-0.1-1.53,0.08-2.15c1.39-4.6,2.86-9.17,4.27-13.76
		C262.58,106.52,263.06,105.83,262.69,105.03z"/>
	<path class="st1" d="M388.14,176.64c-0.03-0.42-0.05-0.85-0.08-1.27c5.67,2.81,11.33,5.62,17.25,8.56
		c-1.15,0.86-1.69,0.21-2.22-0.05c-4.37-2.16-8.71-4.35-13.06-6.54C389.43,177.03,388.87,176.62,388.14,176.64z"/>
	<path class="st1" d="M373.88,40.44c-0.43-0.05-0.85-0.1-1.28-0.15c0.9-5.07,1.11-10.21,1.75-15.31c0.09-0.75-0.15-1.64,1.07-2.49
		C374.89,28.71,374.38,34.58,373.88,40.44z"/>
	<path class="st1" d="M375.3,41.74c-0.31-0.38-0.63-0.76-0.94-1.13c3.97-3.85,7.93-7.71,11.9-11.57c0.23,1.37-0.63,1.81-1.23,2.42
		c-2.8,2.85-5.64,5.65-8.45,8.48C376.05,40.46,375.32,40.86,375.3,41.74z"/>
	<path class="st1" d="M369.76,160.9c0.15-0.17,0.3-0.35,0.45-0.52c4.69,4.44,9.31,8.95,13.67,13.71c-0.15,0.16-0.3,0.32-0.46,0.47
		C378.72,170.16,374.16,165.61,369.76,160.9z"/>
	<path class="st1" d="M413.16,78.34c-0.06-0.33,0.11-0.51,0.41-0.6c3.42,2.65,6.97,5.15,9.94,8.36
		C419.92,83.7,416.34,81.3,413.16,78.34z"/>
	<path class="st1" d="M135.94,178.5c3.04,0,6.07,0.03,9.11-0.01c0.94-0.01,1.36,0.23,1.34,1.26c-0.11,6.82-0.13,13.66-1.9,20.3
		c-2.32,8.68-8.52,13.23-17.45,13.04c-7.67-0.16-14.4-5.74-16.24-13.47c-2.52-10.59,5.72-20.92,16.85-21.11
		C130.42,178.46,133.18,178.5,135.94,178.5z"/>
	<path class="st1" d="M303.07,178.5c3.03,0,6.07,0.03,9.1-0.02c0.95-0.02,1.34,0.18,1.31,1.24c-0.19,6.53-0.26,13.09-1.75,19.49
		c-1.98,8.56-8.08,13.71-16.18,13.88c-8.27,0.17-15.23-4.78-17.47-12.42c-3.21-10.95,4.94-21.9,16.51-22.16
		C297.42,178.44,300.25,178.5,303.07,178.5z"/>
	<path class="st1" d="M331.73,87.66c-0.16,0.27-0.32,0.54-0.48,0.82c-0.35,0.04-0.65,0.14-0.83,0.48c-1.15,0.29-2.19-0.03-3.18-0.6
		c0.07-0.32-0.05-0.54-0.33-0.69c-0.37-1-0.14-1.95,0.26-2.89c0.3-0.03,0.46-0.18,0.44-0.49c2.73-0.86,3.57-0.45,4.48,2.18
		C331.7,86.78,331.71,87.22,331.73,87.66z"/>
	<path class="st1" d="M367.76,137.14c0.21-0.02,0.42-0.04,0.63-0.06c0.39,0.1,0.77,0.21,1.16,0.31c1.02,0.83,1.53,1.85,1.1,3.17
		c-0.4,1.24-1.3,1.8-2.59,1.78c-0.49-0.16-0.97-0.32-1.46-0.47c-1.33-1.38-1.52-2.77-0.03-4.17
		C366.97,137.51,367.36,137.32,367.76,137.14z"/>
	<path class="st1" d="M331.77,104.4c2.1-2,3.58-1.8,4.94,0.66c0,0.39-0.01,0.78-0.01,1.17c-0.24,1.4-1.23,1.95-2.49,2.19
		c-0.31-0.05-0.62-0.11-0.93-0.16c-1.29-0.64-1.9-1.65-1.72-3.1C331.62,104.9,331.7,104.65,331.77,104.4z"/>
	<path class="st1" d="M291.31,73.07c-0.75,0.37-0.56-0.1-0.44-0.5C291.02,72.74,291.16,72.91,291.31,73.07z"/>
	<path class="st1" d="M422.02,146.96c-4.83,0.42-9.7-0.05-14.52,0.64c0.01-0.39,0.02-0.79,0.03-1.18c4.63-0.13,9.25-0.25,13.88-0.38
		C421.61,146.34,421.82,146.65,422.02,146.96z"/>
	<path class="st1" d="M305.79,94.76c-4.69-4.71-9.38-9.42-14.08-14.11c-0.28-0.28-0.68-0.43-1.02-0.64
		c0.34-0.34,0.68-0.68,1.02-1.02c0.2,0.87,0.94,1.32,1.51,1.89c4.41,4.41,8.84,8.8,13.26,13.19
		C306.25,94.3,306.02,94.53,305.79,94.76z"/>
	<path class="st1" d="M403.02,145.17c-2.62-4.03-5.22-8.06-7.85-12.08c-1.92-2.93-3.88-5.84-5.82-8.75
		c-0.35-0.52-0.53-1.37-1.48-0.64c-6.05,4.63-12.4,8.87-18.31,13.69c-0.39-0.1-0.77-0.21-1.16-0.31c4.68-3.95,9.82-7.27,14.66-11.01
		c1.62-1.25,4.34-2.12,4.57-3.83c0.2-1.5-1.88-3.31-2.97-4.97c-0.79-1.21-1.61-2.4-2.41-3.59c0.14-0.35,0.44-0.38,0.76-0.38
		c2.7,3.98,5.43,7.93,8.08,11.94c4.25,6.41,8.45,12.86,12.68,19.3C403.51,144.74,403.26,144.96,403.02,145.17z"/>
	<path class="st1" d="M368.06,142.33c-0.11,0.17-0.32,0.34-0.32,0.51c0.15,4.46,0.2,8.93,0.82,13.36c-0.42,0.02-0.83,0.04-1.25,0.06
		c0-4.81-0.39-9.6-0.71-14.4C367.09,142.02,367.57,142.18,368.06,142.33z"/>
	<path class="st1" d="M331.77,104.4c-0.07,0.25-0.15,0.5-0.22,0.76c-7.07-2.37-14.13-4.79-21.03-7.66c0.05-0.26,0.09-0.52,0.14-0.77
		C317.7,99.28,324.73,101.84,331.77,104.4z"/>
	<path class="st1" d="M326.91,87.66c0.28,0.15,0.4,0.37,0.33,0.69c-3.97,2.22-8.29,3.65-12.41,5.54c-1.37,0.63-2.8,1.13-4.2,1.69
		c-0.07-0.19-0.14-0.39-0.22-0.58c4.39-2.41,9.15-4,13.68-6.1C325.01,88.47,325.96,88.08,326.91,87.66z"/>
	<path class="st1" d="M327.61,84.28c0.02,0.31-0.14,0.46-0.44,0.49c-2.4-2.34-4.8-4.69-7.2-7.03c0.22-0.22,0.43-0.43,0.65-0.65
		C323.01,79.43,325.5,81.65,327.61,84.28z"/>
</g>
</svg>
