<?xml version="1.0" encoding="utf-8"?>
<!-- Generator: Adobe Illustrator 23.1.0, SVG Export Plug-In . SVG Version: 6.00 Build 0)  -->
<svg version="1.1" id="Layer_1" xmlns="http://www.w3.org/2000/svg" xmlns:xlink="http://www.w3.org/1999/xlink" x="0px" y="0px"
	 viewBox="0 0 426 169" style="enable-background:new 0 0 426 169;" xml:space="preserve">
<g>
	<path d="M320.33,82.38c-0.02-50.81-29.61-59.29-67.41-59.54l-32.12,0.03v2.15c12.48,1.02,10.67,6.35,10.8,16.26v68.99h0.16v35.92
		l21.16,0.02c30.95-0.22,55.98-5.96,64.2-35.91h0.04C319.29,102.69,320.33,93.48,320.33,82.38z M297.99,94.01
		c-0.3,3.08-0.76,6.46-1.51,9.79c-0.84,3.92-3.18,11.03-4.88,14.38c-2.53,4.96-5.2,10.13-11.41,13.83
		c-6.39,3.8-11.21,5.39-19.86,5.39c-2.64,0-5.02-0.45-6.6-0.96v-26.18l0,0l-0.01-77.92c1.57-0.52,3.69-0.71,6.34-0.71
		c32.8,0,37.89,24.37,38.41,50.75C298.52,84.43,298.5,88.8,297.99,94.01z"/>
	<path d="M372.58,135.62c-13.05,0-14.64-5.25-14.64-15.32l-0.3-37.65h33.23v-0.43c0.03,0,0.05,0,0.05,0v-6.82
		c0,0-0.02-0.01-0.05-0.02v-2.73h-33.13l-0.1-0.02l0.02-29.26c0-9.36,0.89-11.33,11.07-11.33h11.65c14.85,0,20.97,0,20.97,0
		l0.04-9.19h-76.44v2.16c12.46,1.02,10.66,6.34,10.8,16.24v104.91h65.64v-10.52c0,0-4.45,0-16.61,0H372.58z"/>
	<path d="M175.13,22.84l-25.15-0.01V25c8.67,0.75,10.3,4.55,9.35,9.49c-0.17,1.36-1.52,5.27-2.98,9.2
		c-1.83,4.92-37.99,102.46-37.99,102.46h13.86l19.8-54.69h29.52l19.51,54.69h20.43L175.13,22.84z M154.1,82.7l12.08-33.63
		l12.55,33.63H154.1z"/>
	<path d="M115.35,109.66h-0.02V22.8h-14.77l0.02,86.86c0,0,0.03,2.79-0.18,5.87c-0.31,4.74-0.95,10.91-4.8,15.5
		c-2.94,3.51-7.48,5.04-10.83,5.63c-3.22,0.59-9.43,0.33-11.8-0.1c-3.48-0.64-7.7-2.18-10.82-5.91c-3.84-4.59-4.73-11.23-4.96-15.85
		c-0.15-3.1-0.05-5.29-0.05-5.29h-0.02V22.84c-0.14,0-0.28,0-0.43,0L24.6,22.87v2.15c12.47,1.02,10.65,6.35,10.8,16.26l-0.01,68.25
		c0,0,0.04,2.66,0.49,6.31c1.24,10.05,6.06,30.02,42.66,30.19c12.09-0.25,21.86-2.75,27.36-8.38
		C115.5,129.39,115.35,109.66,115.35,109.66z"/>
</g>
</svg>
