<?xml version="1.0" encoding="utf-8"?>
<!-- Generator: Adobe Illustrator 23.1.0, SVG Export Plug-In . SVG Version: 6.00 Build 0)  -->
<svg version="1.1" id="Layer_2" xmlns="http://www.w3.org/2000/svg" xmlns:xlink="http://www.w3.org/1999/xlink" x="0px" y="0px"
	 viewBox="0 0 161 253" style="enable-background:new 0 0 161 253;" xml:space="preserve">
<g>
	<path d="M126.97,140.95c0.77,0.39,1.55,0.32,2.3,0.31c4.78-0.04,9.55-0.07,14.33-0.16c1.02-0.02,1.58,0.2,1.42,1.34
		c-0.06,0.43-0.06,0.88,0,1.31c0.17,1.19-0.36,1.46-1.48,1.45c-5.49-0.05-10.98,0.07-16.47-0.08c-1.88-0.05-3.14,0.39-3.88,2.14
		c-0.18,0.44-0.49,0.84-0.74,1.26c0.56,0.54,1.2,0.3,1.76,0.3c6.37,0.04,12.74,0.09,19.1,0.04c1.37-0.01,1.93,0.35,1.7,1.72
		c-0.04,0.27-0.04,0.55,0,0.82c0.19,1.27-0.27,1.68-1.6,1.66c-5.21-0.07-10.43-0.01-15.65,0c-2.14,0.01-4.29,0.13-6.42,0.01
		c-1.59-0.09-2.75,0.29-3.55,1.72c-0.31,0.56-0.8,1.02-1.39,1.75c0.8,0.04,1.37,0.08,1.93,0.08c8.29,0,16.58,0.04,24.87-0.03
		c1.45-0.01,2.04,0.35,1.8,1.82c-0.05,0.32-0.05,0.66,0,0.99c0.17,1.13-0.24,1.5-1.42,1.48c-4.12-0.07-8.23-0.03-12.35-0.03
		c-5.71,0-11.42,0.03-17.13-0.03c-1.2-0.01-2.07,0.26-2.8,1.25c-0.8,1.09-1.75,2.06-2.89,3.36c0.91,0,1.49,0,2.06,0
		c10.93,0.02,21.85,0.04,32.78,0.06c1.54,0,2.43,1.56,1.69,2.96c-0.34,0.64-0.98,0.36-1.47,0.36c-5.82,0.03-11.64,0.04-17.46,0.05
		c-6.97,0.01-13.94,0.03-20.92,0.04c-2.28,0.01-2.35,0.06-2.35,2.28c-0.01,3.39,0,6.78,0,10.44c-1.84-1.16-3.35-2.42-5.12-3.24
		c-0.58-0.27-0.37-0.86-0.37-1.32c-0.01-2.25-0.06-4.5,0.03-6.75c0.05-1.14-0.4-1.4-1.42-1.34c-1.2,0.07-2.42,0.07-3.62,0
		c-0.99-0.06-1.35,0.25-1.32,1.28c0.07,2.3-0.03,4.61,0.02,6.92c0.02,0.86-0.24,1.1-1.11,1.12c-4.62,0.15-4.62,0.18-4.73-4.35
		c-0.01-0.33,0.01-0.66-0.03-0.99c-0.16-1.29,0.58-3-0.35-3.76c-0.78-0.63-2.41-0.24-3.66-0.24C60.26,168.99,39.45,169,18.64,169
		c-1.89,0-2.73-1.28-2.03-3.02c0.26-0.65,0.8-0.46,1.26-0.47c3.02-0.02,6.04-0.01,9.06-0.01c16.03,0.01,32.06,0.01,48.09,0.01
		c0.79,0,1.6,0.11,2.38-0.38c-4.17-1.53-7.55-4.51-12.55-4.4c-15.53,0.34-31.07,0.11-46.61,0.16c-1.39,0-1.89-0.38-1.68-1.74
		c0.06-0.37,0.05-0.77,0-1.15c-0.17-1.21,0.41-1.52,1.51-1.43c0.87,0.08,1.76,0.02,2.63,0.02c13.4,0.01,26.79,0.01,40.19,0.01
		c0.36,0,0.76,0.14,1.15-0.21c-2.26-2.01-4.44-3.52-7.85-3.44c-12.02,0.26-24.04,0.11-36.07,0.17c-1.25,0.01-1.62-0.33-1.58-1.56
		c0.11-3.24-0.34-2.7,2.7-2.71c10.54-0.03,21.08-0.01,31.62-0.01c0.58,0,1.16,0,2.01,0c-1.82-2.24-3.37-3.67-6.4-3.58
		c-9.49,0.28-18.99,0.08-28.49,0.13c-1.18,0.01-1.46-0.36-1.45-1.49c0.04-2.83-0.02-2.83,2.87-2.83c8.73,0,17.45,0,26.2,0
		c-0.96-2.66-1.96-3.42-4.51-3.44c-7.63-0.07-15.26-0.19-22.89,0.06c-1.3,0.04-1.67-0.33-1.69-1.63c-0.02-1.34,0.44-1.61,1.68-1.6
		c7.08,0.06,14.16,0.03,21.25,0.03c0.53,0,1.06,0,1.83,0c-0.59-1.1-1.08-2-1.54-2.91c-0.36-0.72-1.02-0.53-1.59-0.53
		c-6.53-0.02-13.07-0.09-19.6-0.01c-1.56,0.02-2.27-0.35-1.99-1.98c0.05-0.32,0.05-0.66,0-0.99c-0.19-1.22,0.27-1.58,1.52-1.57
		c5.93,0.07,11.86,0.03,17.79,0.03c0.38,0,0.76,0,1.16,0c0.15-0.77-0.36-1.3-0.49-1.92c-0.22-1.03-0.81-1.33-1.87-1.32
		c-5.43,0.03-10.87-0.08-16.3-0.02c-1.45,0.02-1.9-0.38-1.83-1.84c0.15-3.22-0.34-2.68,2.71-2.71c4.61-0.03,9.22-0.04,13.84,0.02
		c1.14,0.01,1.52-0.14,1.18-1.41c-0.65-2.41-0.57-2.43-3.03-2.43c-4.34,0-8.68-0.04-13.01,0.03c-1.28,0.02-1.72-0.32-1.68-1.65
		c0.07-2.83,0-2.83,2.89-2.83c4.06,0,8.13-0.05,12.19,0.02c1.14,0.02,1.36-0.35,1.25-1.4c-0.29-2.93-0.25-2.94-3.27-2.97
		c-3.84-0.04-7.69-0.12-11.53-0.11c-1.09,0-1.55-0.23-1.54-1.44c0.02-3.03-0.04-3.03,3.02-3.03c3.79,0,7.58-0.03,11.36,0.02
		c1.14,0.02,1.53-0.32,1.5-1.5c-0.09-3.02-0.04-3.02-3.11-3.02c-3.73,0-7.47-0.05-11.2,0.03c-1.22,0.03-1.75-0.31-1.55-1.55
		c0.05-0.32,0.05-0.66,0-0.99c-0.18-1.2,0.24-1.6,1.51-1.58c4.28,0.08,8.56,0.04,12.85,0.02c0.6,0,1.5,0.3,1.63-0.63
		c0.16-1.12,0.59-2.27,0.21-3.4c-0.13-0.4-0.8-0.19-1.23-0.19c-4.5-0.01-9.01-0.05-13.51,0.04c-1.34,0.03-1.48-0.49-1.51-1.62
		c-0.02-1.18,0.37-1.46,1.5-1.44c4.61,0.06,9.22-0.01,13.83,0.05c1.22,0.02,1.76-0.39,2.01-1.58c0.72-3.34,0.77-3.33-2.63-3.33
		c-4.34,0-8.68-0.06-13.01,0.03c-1.41,0.03-1.88-0.43-1.67-1.76c0.04-0.27,0.04-0.55,0-0.82c-0.17-1.15,0.29-1.48,1.45-1.47
		c5.38,0.03,10.76-0.04,16.14-0.07c1.75-0.01,3.45-1.5,3.51-3.2c0.03-0.89-0.78-0.52-1.21-0.52c-5.65-0.03-11.31-0.02-16.96-0.02
		c-0.49,0-0.99-0.05-1.48,0.01c-1.19,0.15-1.47-0.4-1.47-1.51c0-1.11,0.3-1.53,1.48-1.52c6.59,0.06,13.18,0,19.76,0.1
		c1.37,0.02,2.28-0.27,2.97-1.48c0.56-0.99,1.3-1.89,1.96-2.82c-0.41-0.57-0.94-0.34-1.39-0.34c-7.58-0.04-15.15-0.13-22.73-0.05
		c-1.69,0.02-2.04-0.44-2.09-2.07c-0.06-1.83,0.67-2,2.18-1.99c8.62,0.06,17.24,0,25.86,0.06c1.33,0.01,2.29-0.29,3.12-1.34
		c0.73-0.92,1.6-1.72,2.59-2.76c-1.21,0-2.11,0-3.02,0c-9.66,0-19.33-0.02-28.99,0.02c-1.26,0.01-1.7-0.3-1.72-1.64
		c-0.02-1.48,0.77-1.38,1.76-1.38c10.98-0.01,21.96-0.08,32.94-0.03c1.66,0.01,2.95-0.35,4.06-1.61c0.75-0.85,1.67-1.54,2.81-2.58
		c-1.13,0-1.91,0-2.69,0c-12.41,0-24.82-0.02-37.22,0.03c-1.35,0.01-1.66-0.43-1.63-1.69c0.06-2.64,0-2.64,2.58-2.64
		c13.89,0,27.78-0.03,41.67,0.04c1.72,0.01,3.06-0.4,4.25-1.6c0.84-0.85,1.83-1.56,3.04-2.58c-1.22,0-2.11,0-3,0
		c-15.65,0-31.29-0.01-46.94,0.02c-1.15,0-1.63-0.2-1.63-1.51c0-1.43,0.72-1.42,1.75-1.42c16.64,0.02,33.27-0.11,49.91,0.11
		c3.37,0.05,5.37-1.5,7.5-3.52c-0.6-0.47-1.22-0.26-1.79-0.26c-18.5-0.03-37-0.05-55.51-0.09c-0.59,0-1.55,0.41-1.71-0.41
		c-0.23-1.15-0.38-2.43,0.12-3.55c0.22-0.5,1.01-0.23,1.54-0.23c11.2-0.01,22.4-0.01,33.6-0.01c9.06,0,18.12-0.03,27.18,0.03
		c1.58,0.01,2.85-0.33,3.98-1.45c0.84-0.85,1.82-1.56,2.78-2.36c-0.59-0.5-1.21-0.27-1.77-0.27c-21.91-0.01-43.81-0.01-65.72-0.01
		c-1.03,0-1.89,0.15-1.86-1.44c0.02-1.41,0.55-1.56,1.73-1.56c23.17,0.03,46.34,0.01,69.51,0.04c1.39,0,2.61-0.11,3.48-1.32
		c0.59-0.82,1.08-0.47,1.47,0.18c0.58,0.97,1.43,1.14,2.5,1.14c16.03-0.03,32.06-0.01,48.09-0.04c1.12,0,1.89,0.02,1.75,1.52
		c-0.08,0.9-0.28,1.22-1.22,1.2c-3.02-0.05-6.04-0.01-9.06-0.01c-12.19,0.02-24.38,0.04-36.56,0.06c-0.98,0-1.97-0.09-3.12,0.32
		c1.36,1.35,2.63,2.61,3.89,3.88c0.55,0.56,1.24,0.34,1.87,0.34c14.11,0,28.22-0.01,42.33,0c0.59,0,1.54-0.39,1.73,0.37
		c0.24,0.92,0.19,1.99-0.02,2.93c-0.13,0.58-0.97,0.28-1.48,0.29c-12.96,0.01-25.91,0.01-38.87,0.01c-0.32,0-0.64,0-0.96,0
		c2.02,1.96,3.27,4.52,6.95,4.42c10.97-0.31,21.96-0.12,32.94-0.13c0.79,0,1.6-0.25,1.6,1.15c0,1.31-0.68,1.22-1.55,1.21
		c-10.38-0.02-20.75-0.03-31.13-0.04c-0.33,0-0.66-0.02-0.99,0c-0.7,0.05-0.94,0.31-0.37,0.89c1.12,1.13,2.26,2.24,3.37,3.38
		c0.51,0.52,1.13,0.34,1.71,0.34c9.06,0.01,18.12,0.05,27.18-0.04c1.54-0.01,1.84,0.48,1.76,1.85c-0.07,1.21,0.14,2.13-1.72,2.1
		c-7.52-0.12-15.04-0.06-22.56-0.04c-0.56,0-1.35-0.32-1.64,0.35c-0.26,0.58,0.53,0.86,0.79,1.31c1.51,2.62,3.73,3.26,6.71,3.11
		c5.64-0.28,11.31-0.09,16.96-0.13c0.95-0.01,1.5,0.07,1.47,1.28c-0.02,1.11-0.38,1.37-1.43,1.37c-6.2-0.04-12.41-0.02-18.98-0.02
		c1.02,1.51,1.85,2.81,2.75,4.06c0.33,0.46,0.93,0.23,1.4,0.23c4.89,0,9.77,0.02,14.66-0.05c1.18-0.02,1.64,0.23,1.58,1.52
		c-0.16,3.21,0.49,2.75-2.81,2.75c-3.51,0-7.03-0.06-10.54-0.08c-0.47,0-0.98-0.15-1.54,0.25c0.63,1.25,1.28,2.49,1.88,3.76
		c0.32,0.69,0.9,0.51,1.42,0.51c3.4,0,6.81,0.05,10.21-0.06c1.3-0.04,1.4,0.51,1.38,1.54c-0.02,0.97,0,1.62-1.35,1.58
		c-3.27-0.11-6.55-0.04-9.97-0.04c0.37,1.08,0.72,2.04,1.04,3.02c0.24,0.71,0.82,0.6,1.36,0.61c2.47,0.04,4.94,0.13,7.41,0.08
		c1.1-0.02,1.56,0.22,1.51,1.43c-0.13,3.49,0.41,2.8-2.87,2.87c-1.59,0.03-3.18,0.01-4.78,0.04c-0.31,0.01-0.63,0.12-0.94,0.18
		c0.28,1.22,0.54,2.45,0.85,3.67c0.2,0.8,0.9,0.47,1.38,0.48c1.76,0.05,3.52,0.1,5.27,0.03c1.44-0.05,1.08,0.95,1.04,1.68
		c-0.04,0.73,0.56,1.91-1.03,1.87c-1.43-0.04-2.86,0.05-4.28-0.03c-1.15-0.06-1.83,0.12-1.36,1.48c0.07,0.2,0.07,0.43,0.07,0.65
		c0.01,1.26,0.49,1.87,1.89,1.71c1.19-0.14,2.41,0.03,3.62-0.02c0.87-0.03,1.1,0.32,1.14,1.15c0.14,3.25,0.17,3.25-3.12,3.25
		c-2.77,0-3.4,0.89-2.58,3.56c0.15,0.5,0.45,0.55,0.84,0.56c0.49,0.01,0.99,0.01,1.48,0.01c3.63,0.06,3.6,0.05,3.37,3.69
		c-0.05,0.79-0.3,1.06-1.07,1.04c-1.26-0.03-2.53,0.05-3.79,0.01c-0.79-0.02-1.11,0.21-1.26,1.06c-0.64,3.62-0.68,3.62,2.89,3.59
		c0.16,0,0.33,0,0.49,0c2.73-0.04,2.68-0.04,2.74,2.62c0.03,1.23-0.23,1.85-1.61,1.68c-0.86-0.11-1.75-0.02-2.63-0.02
		c-2.92,0-2.89,0.01-3.93,2.71c-0.34,0.88-0.23,1.18,0.74,1.16c1.98-0.04,3.96,0.05,5.93-0.03c1.12-0.05,1.52,0.27,1.5,1.45
		c-0.03,2.97,0.03,2.97-2.93,2.97c-1.98,0-3.95,0-5.93,0c-1.13,0-2.95,2.15-2.7,3.21c0.15,0.64,0.73,0.35,1.1,0.35
		c2.96,0.03,5.93,0.08,8.89-0.01c1.23-0.04,1.62,0.31,1.56,1.55c-0.14,2.62,0.41,2.31-2.39,2.34c-3.29,0.03-6.59,0.04-9.88,0.09
		c-0.92,0.01-2.9,2.71-2.56,3.51c0.26,0.61,0.93,0.46,1.46,0.46c3.9,0.01,7.8,0,11.69,0.01c1.59,0,2.05,0.67,1.65,2.22
		c-0.22,0.85-0.86,0.53-1.33,0.54c-4.17,0.03-8.35,0.15-12.51-0.04c-2.04-0.1-3.2,0.52-3.74,2.43
		C127.31,140.25,127.12,140.58,126.97,140.95z"/>
	<path d="M102.48,207c0,5.16-0.03,10.32,0.02,15.48c0.01,1.15-0.34,1.49-1.49,1.49c-4.28,0.01-4.28,0.05-4.29-4.25
		c-0.01-8.51-0.03-17.02-0.04-25.52c-0.01-3.66-1.41-5.04-5.09-5.03c-15.04,0.01-30.08,0.06-45.12-0.01
		c-1.73-0.01-2.08,0.52-2.08,2.1c0,4.94-0.3,9.88-0.22,14.82c0.09,5.67-3.93,8.08-8.85,7.46c-4.56-0.57-7.23-3.64-7.22-8.24
		c0.02-6.92,0.07-13.83,0.03-20.75c-0.01-1.22,0.28-1.58,1.54-1.57c4.04,0.04,4.04-0.01,4.01,4.01c-0.04,5.93-0.1,11.86-0.14,17.78
		c0,0.55-0.02,1.1,0.06,1.64c0.25,1.78,1.49,2.91,3.06,2.82c1.61-0.09,2.64-1.26,2.68-3.14c0.13-7.13,0.27-14.27,0.31-21.4
		c0.01-1.37,0.38-1.72,1.74-1.71c17.24,0.14,34.47,0.18,51.71,0.32c5.64,0.05,9.8,4.41,9.55,9.55c-0.24,4.71-0.05,9.44-0.05,14.16
		C102.55,207,102.51,207,102.48,207z"/>
	<path d="M66.94,210.02c0,4.23-0.03,8.45,0.02,12.68c0.01,1.04-0.24,1.41-1.36,1.41c-3.88,0.01-3.88,0.05-3.88-3.79
		c0-5.93-0.03-11.86,0.03-17.79c0.01-1.2-0.27-1.6-1.53-1.58c-3.2,0.06-3.26,0-3.18,3.18c0.1,4.25-0.04,8.39-2.08,12.32
		c-4.51,8.66-14.52,12.63-24.35,9.41c-7.09-2.32-12.01-6.85-14.05-14.2c-0.3-1.07-0.43-2.15-0.44-3.25
		c-0.09-7.96-0.18-15.92-0.32-23.88c-0.02-1.06,0.23-1.51,1.35-1.41c1.52,0.14,3.46-0.6,4.46,0.28c0.94,0.83,0.29,2.8,0.32,4.26
		c0.12,5.71,0.22,11.42,0.29,17.12c0.09,7.14,4.53,12.86,11.49,14.57c4.08,1,8.08,0.72,11.78-1.46c3.57-2.11,5.51-5.25,5.51-9.47
		c0-3.79,0.03-7.58-0.02-11.36c-0.01-1.06,0.27-1.43,1.38-1.41c4.39,0.06,8.78,0.07,13.17,0c1.2-0.02,1.46,0.41,1.44,1.52
		C66.91,201.45,66.94,205.74,66.94,210.02z"/>
	<path d="M104.37,183.54c0.83,0,1.36,0,1.9,0c11.75,0,23.49,0.04,35.24-0.04c1.65-0.01,2.01,0.47,1.93,2.01
		c-0.14,2.9-0.17,5.82-0.05,8.72c0.08,1.79-0.51,3.07-1.76,4.33c-2.93,2.97-5.71,6.08-8.55,9.13c-0.36,0.38-0.68,0.8-1.27,1.49
		c4.08,0,7.79,0.14,11.49-0.05c2.38-0.12,1.56,1.42,1.72,2.56c0.2,1.44-0.44,1.69-1.77,1.67c-6.97-0.1-13.94-0.1-20.91-0.14
		c-0.48,0-0.96,0-1.78,0c0.57-0.63,0.94-1.06,1.33-1.46c4.85-4.85,9.67-9.74,14.58-14.53c1.15-1.12,1.78-2.26,1.58-3.87
		c-0.17-1.35,0.58-3.15-0.34-3.94c-0.78-0.66-2.51-0.23-3.82-0.23c-7.9-0.01-15.81-0.04-23.71,0.03c-1.35,0.01-2.18-0.26-2.85-1.54
		C106.61,186.3,105.52,185.11,104.37,183.54z"/>
	<path d="M116.75,200.99c-2.69,0-4.93-0.04-7.17,0.02c-0.89,0.02-1.24-0.17-1.28-1.15c-0.13-3.8-0.17-3.79,3.59-3.77
		c4.61,0.02,9.22,0.02,13.83,0.05c0.52,0,1.07-0.16,1.59,0.15c-0.13,0.62-0.65,0.89-1.02,1.26c-4.54,4.55-9.05,9.12-13.66,13.59
		c-1.24,1.2-1.79,2.41-1.78,4.15c0.03,3.99-0.05,3.99,3.96,3.99c9.39-0.01,18.78,0.01,28.16-0.06c1.37-0.01,1.77,0.35,1.74,1.73
		c-0.08,3.52-0.01,3.52-3.52,3.52c-11.36,0-22.73-0.03-34.09,0.01c-1.17,0-1.62-0.19-1.58-1.5c0.1-3.35,0.05-6.7-0.01-10.04
		c-0.02-0.92,0.31-1.52,0.95-2.12C109.81,207.65,113.12,204.46,116.75,200.99z"/>
	<path d="M72.52,209.75c0-4.17,0.04-8.34-0.03-12.5c-0.02-1.17,0.22-1.63,1.51-1.61c5.04,0.08,10.09,0.06,15.14,0.03
		c0.96-0.01,1.2,0.34,1.2,1.25c-0.03,8.67-0.03,17.33,0,26c0,0.96-0.34,1.17-1.24,1.19c-4,0.09-4,0.11-4-3.82
		c0-5.92-0.04-11.85,0.03-17.77c0.01-1.24-0.32-1.64-1.56-1.55c-1.42,0.11-2.86,0.11-4.27,0c-1.24-0.09-1.57,0.31-1.56,1.54
		c0.06,6.58-0.03,13.16,0.07,19.74c0.02,1.56-0.46,1.9-1.92,1.86c-3.36-0.1-3.36-0.03-3.36-3.33
		C72.52,217.1,72.52,213.43,72.52,209.75z"/>
</g>
</svg>
